<?xml version="1.0" encoding="UTF-8"?>
<svg id="Livello_1" data-name="Livello 1" xmlns="http://www.w3.org/2000/svg" viewBox="0 0 2550 592">
  <defs>
    <style>
      .cls-1 {
        fill: #6a8bff;
      }

      .cls-2 {
        fill: #fff;
      }

      .cls-3 {
        fill: #3700b3;
      }

      .cls-4 {
        fill: #ffb54a;
      }

      .cls-5 {
        fill: #f4fffd;
      }

      .cls-6 {
        fill: #ccc;
      }

      .cls-7 {
        fill: #ffd655;
      }

      .cls-8 {
        fill: #ffa615;
      }
    </style>
  </defs>
  <rect class="cls-7" x="573" y="322" width="1404" height="262"/>
  <g>
    <path class="cls-4" d="M715.89,432.59v-24.54h24.57v24.54h-24.57Zm0,73.69v-61.39h24.57v61.39h-24.57Z"/>
    <path class="cls-4" d="M758.87,506.28v-61.39h73.69v12.27h12.27v49.12h-24.54v-49.12h-36.85v49.12h-24.57Z"/>
    <path class="cls-4" d="M924.66,506.28v-12.27h-12.27v-24.58h24.57v24.58h36.85v-73.69h-36.85v-12.27h61.39v85.96h-12.27v12.27h-61.42Z"/>
    <path class="cls-4" d="M1029.06,506.28v-12.27h-12.27v-12.27h12.27v-12.3h49.15v-12.27h-49.15v-12.27h61.42v12.27h12.27v49.12h-73.69Zm49.15-12.27v-12.27h-36.85v12.27h36.85Z"/>
    <path class="cls-4" d="M1145.76,506.28v-12.27h-12.3v-12.27h-12.27v-36.84h24.57v36.84h12.27v12.27h12.27v-12.27h12.3v-36.84h24.54v36.84h-12.27v12.27h-12.27v12.27h-36.85Z"/>
    <path class="cls-4" d="M1237.86,506.28v-12.27h-12.27v-12.27h12.27v-12.3h49.15v-12.27h-49.15v-12.27h61.42v12.27h12.27v49.12h-73.69Zm49.15-12.27v-12.27h-36.85v12.27h36.85Z"/>
    <path class="cls-4" d="M1329.99,506.28v-12.27h61.42v-12.27h-49.15v-12.3h-12.27v-12.27h12.27v-12.27h61.42v12.27h-49.12v12.27h49.12v12.3h12.27v12.27h-12.27v12.27h-73.69Z"/>
    <path class="cls-4" d="M1446.66,506.28v-12.27h-12.27v-36.85h12.27v-12.27h61.42v12.27h12.27v12.27h-24.54v-12.27h-36.85v36.85h36.85v-12.27h24.54v12.27h-12.27v12.27h-61.42Z"/>
    <path class="cls-4" d="M1538.79,506.28v-61.39h24.58v12.27h12.27v12.27h-12.27v36.85h-24.58Zm36.85-49.12v-12.27h36.85v12.27h-36.85Z"/>
    <path class="cls-4" d="M1630.89,432.59v-24.54h24.58v24.54h-24.58Zm0,73.69v-61.39h24.58v61.39h-24.58Z"/>
    <path class="cls-4" d="M1673.87,543.13v-98.23h73.69v12.27h12.27v36.85h-12.27v12.27h-49.12v36.85h-24.58Zm61.42-49.12v-36.85h-36.85v36.85h36.85Z"/>
    <path class="cls-4" d="M1802.84,506.28v-12.27h-12.3v-36.85h-12.27v-12.27h12.27v-36.85h24.57v36.85h24.58v12.27h-24.58v36.85h24.58v12.27h-36.85Z"/>
  </g>
  <rect class="cls-3" width="2550" height="322"/>
  <g>
    <path class="cls-6" d="M259.75,285.07H31.6V56.93h228.15v22.81h22.81v68.44h-22.81v45.63h22.81v68.44h-22.81v22.81ZM122.86,148.19h68.44v-45.63H122.86v45.63Zm0,91.26h68.44v-45.63H122.86v45.63Z"/>
    <path class="cls-6" d="M305.38,56.93h91.26V239.44h159.7v45.63h-250.96V56.93Z"/>
    <path class="cls-6" d="M670.41,285.07h-91.26V79.74h22.81v-22.81h205.33v22.81h22.81v205.33h-91.26v-91.26h-68.44v91.26Zm0-136.89h68.44v-45.63h-68.44v45.63Z"/>
    <path class="cls-6" d="M1081.08,285.07h-205.33v-22.81h-22.81V79.74h22.81v-22.81h205.33v22.81h22.81v68.44h-91.26v-45.63h-68.44V239.44h68.44v-45.63h91.26v68.44h-22.81v22.81Z"/>
    <path class="cls-6" d="M1217.96,285.07h-91.26V56.93h91.26V125.37h22.81v-22.81h22.81v-22.81h22.82v-22.81h114.07v45.63h-22.81v22.81h-22.82v22.81h-22.81v45.63h22.81v22.81h22.82v22.81h22.81v45.63h-114.07v-22.81h-22.82v-22.81h-22.81v-22.81h-22.81v68.44Z"/>
    <path class="cls-6" d="M1651.44,285.07h-205.33v-22.81h-22.82v-68.44h91.26v45.63h68.45V56.93h91.26v205.33h-22.82v22.81Z"/>
    <path class="cls-6" d="M1788.33,285.07h-91.26V79.74h22.82v-22.81h205.33v22.81h22.82v205.33h-91.26v-91.26h-68.45v91.26Zm0-136.89h68.45v-45.63h-68.45v45.63Z"/>
    <path class="cls-6" d="M2198.99,285.07h-205.33v-22.81h-22.82V79.74h22.82v-22.81h205.33v22.81h22.82v68.44h-91.26v-45.63h-68.45V239.44h68.45v-45.63h91.26v68.44h-22.82v22.81Z"/>
    <path class="cls-6" d="M2335.88,285.07h-91.26V56.93h91.26V125.37h22.82v-22.81h22.81v-22.81h22.82v-22.81h114.07v45.63h-22.81v22.81h-22.82v22.81h-22.81v45.63h22.81v22.81h22.82v22.81h22.81v45.63h-114.07v-22.81h-22.82v-22.81h-22.81v-22.81h-22.82v68.44Z"/>
  </g>
  <g>
    <path class="cls-2" d="M259.75,264.07H31.6V35.93h228.15v22.81h22.81V127.19h-22.81v45.63h22.81v68.44h-22.81v22.81ZM122.86,127.19h68.44v-45.63H122.86v45.63Zm0,91.26h68.44v-45.63H122.86v45.63Z"/>
    <path class="cls-2" d="M305.38,35.93h91.26V218.44h159.7v45.63h-250.96V35.93Z"/>
    <path class="cls-2" d="M670.41,264.07h-91.26V58.74h22.81v-22.81h205.33v22.81h22.81v205.33h-91.26v-91.26h-68.44v91.26Zm0-136.89h68.44v-45.63h-68.44v45.63Z"/>
    <path class="cls-2" d="M1081.08,264.07h-205.33v-22.81h-22.81V58.74h22.81v-22.81h205.33v22.81h22.81V127.19h-91.26v-45.63h-68.44V218.44h68.44v-45.63h91.26v68.44h-22.81v22.81Z"/>
    <path class="cls-2" d="M1217.96,264.07h-91.26V35.93h91.26V104.37h22.81v-22.81h22.81v-22.81h22.82v-22.81h114.07v45.63h-22.81v22.81h-22.82v22.81h-22.81v45.63h22.81v22.81h22.82v22.81h22.81v45.63h-114.07v-22.81h-22.82v-22.81h-22.81v-22.81h-22.81v68.44Z"/>
    <path class="cls-2" d="M1651.44,264.07h-205.33v-22.81h-22.82v-68.44h91.26v45.63h68.45V35.93h91.26V241.26h-22.82v22.81Z"/>
    <path class="cls-2" d="M1788.33,264.07h-91.26V58.74h22.82v-22.81h205.33v22.81h22.82v205.33h-91.26v-91.26h-68.45v91.26Zm0-136.89h68.45v-45.63h-68.45v45.63Z"/>
    <path class="cls-2" d="M2198.99,264.07h-205.33v-22.81h-22.82V58.74h22.82v-22.81h205.33v22.81h22.82V127.19h-91.26v-45.63h-68.45V218.44h68.45v-45.63h91.26v68.44h-22.82v22.81Z"/>
    <path class="cls-2" d="M2335.88,264.07h-91.26V35.93h91.26V104.37h22.82v-22.81h22.81v-22.81h22.82v-22.81h114.07v45.63h-22.81v22.81h-22.82v22.81h-22.81v45.63h22.81v22.81h22.82v22.81h22.81v45.63h-114.07v-22.81h-22.82v-22.81h-22.81v-22.81h-22.82v68.44Z"/>
  </g>
  <g>
    <path class="cls-5" d="M715.89,421.59v-24.54h24.57v24.54h-24.57Zm0,73.69v-61.39h24.57v61.39h-24.57Z"/>
    <path class="cls-5" d="M758.87,495.28v-61.39h73.69v12.27h12.27v49.12h-24.54v-49.12h-36.85v49.12h-24.57Z"/>
    <path class="cls-5" d="M924.66,495.28v-12.27h-12.27v-24.58h24.57v24.58h36.85v-73.69h-36.85v-12.27h61.39v85.96h-12.27v12.27h-61.42Z"/>
    <path class="cls-5" d="M1029.06,495.28v-12.27h-12.27v-12.27h12.27v-12.3h49.15v-12.27h-49.15v-12.27h61.42v12.27h12.27v49.12h-73.69Zm49.15-12.27v-12.27h-36.85v12.27h36.85Z"/>
    <path class="cls-5" d="M1145.76,495.28v-12.27h-12.3v-12.27h-12.27v-36.84h24.57v36.84h12.27v12.27h12.27v-12.27h12.3v-36.84h24.54v36.84h-12.27v12.27h-12.27v12.27h-36.85Z"/>
    <path class="cls-5" d="M1237.86,495.28v-12.27h-12.27v-12.27h12.27v-12.3h49.15v-12.27h-49.15v-12.27h61.42v12.27h12.27v49.12h-73.69Zm49.15-12.27v-12.27h-36.85v12.27h36.85Z"/>
    <path class="cls-5" d="M1329.99,495.28v-12.27h61.42v-12.27h-49.15v-12.3h-12.27v-12.27h12.27v-12.27h61.42v12.27h-49.12v12.27h49.12v12.3h12.27v12.27h-12.27v12.27h-73.69Z"/>
    <path class="cls-5" d="M1446.66,495.28v-12.27h-12.27v-36.85h12.27v-12.27h61.42v12.27h12.27v12.27h-24.54v-12.27h-36.85v36.85h36.85v-12.27h24.54v12.27h-12.27v12.27h-61.42Z"/>
    <path class="cls-5" d="M1538.79,495.28v-61.39h24.58v12.27h12.27v12.27h-12.27v36.85h-24.58Zm36.85-49.12v-12.27h36.85v12.27h-36.85Z"/>
    <path class="cls-5" d="M1630.89,421.59v-24.54h24.58v24.54h-24.58Zm0,73.69v-61.39h24.58v61.39h-24.58Z"/>
    <path class="cls-5" d="M1673.87,532.13v-98.23h73.69v12.27h12.27v36.85h-12.27v12.27h-49.12v36.85h-24.58Zm61.42-49.12v-36.85h-36.85v36.85h36.85Z"/>
    <path class="cls-5" d="M1802.84,495.28v-12.27h-12.3v-36.85h-12.27v-12.27h12.27v-36.85h24.57v36.85h24.58v12.27h-24.58v36.85h24.58v12.27h-36.85Z"/>
  </g>
  <rect class="cls-1" y="322" width="2550" height="20"/>
  <rect class="cls-8" x="573" y="576" width="1404" height="16"/>
  <rect class="cls-7" x="335" y="342" width="238" height="80"/>
  <rect class="cls-7" x="457" y="419" width="116" height="80"/>
  <rect class="cls-8" x="457" y="499" width="116" height="16"/>
  <rect class="cls-8" x="335" y="422" width="122" height="16"/>
  <rect class="cls-7" x="1977" y="342" width="238" height="80" transform="translate(4192 764) rotate(-180)"/>
  <rect class="cls-7" x="1977" y="419" width="116" height="80" transform="translate(4070 918) rotate(-180)"/>
  <rect class="cls-8" x="1977" y="499" width="116" height="16" transform="translate(4070 1014) rotate(-180)"/>
  <rect class="cls-8" x="2093" y="422" width="122" height="16" transform="translate(4308 860) rotate(-180)"/>
</svg>