<svg xmlns="http://www.w3.org/2000/svg" width="512" height="512" viewBox="0 0 512 512" version="1.1">
	<path d="M 128 176 L 128 320 112 320 L 96 320 96 352 L 96 384 80 384 L 64 384 64 400 L 64 416 48 416 L 32 416 32 448 L 32 480 256 480 L 480 480 480 416 L 480 352 464 352 L 448 352 448 304 L 448 256 432 256 L 416 256 416 144 L 416 32 400 32 L 384 32 384 48 L 384 64 368 64 L 352 64 352 80 L 352 96 336 96 L 320 96 320 80 L 320 64 304 64 L 288 64 288 48 L 288 32 272 32 L 256 32 256 48 L 256 64 240 64 L 224 64 224 80 L 224 96 208 96 L 192 96 192 80 L 192 64 176 64 L 160 64 160 48 L 160 32 144 32 L 128 32 128 176 M 160 208 L 160 224 176 224 L 192 224 192 240 L 192 256 176 256 L 160 256 160 272 L 160 288 224 288 L 288 288 288 304 L 288 320 304 320 L 320 320 320 288 L 320 256 272 256 L 224 256 224 240 L 224 224 256 224 L 288 224 288 208 L 288 192 224 192 L 160 192 160 208 M 160 352 L 160 384 176 384 L 192 384 192 368 L 192 352 208 352 L 224 352 224 368 L 224 384 240 384 L 256 384 256 352 L 256 320 208 320 L 160 320 160 352 M 128 432 L 128 448 144 448 L 160 448 160 432 L 160 416 144 416 L 128 416 128 432 M 288 432 L 288 448 304 448 L 320 448 320 432 L 320 416 304 416 L 288 416 288 432" stroke="none" fill="black" fill-rule="evenodd"/>
</svg>